<?xml version="1.0" encoding="UTF-8" standalone="no"?>
<!-- Uploaded to: SVG Repo, www.svgrepo.com, Generator: SVG Repo Mixer Tools -->

<svg
   width="800px"
   height="800px"
   viewBox="0 0 24 24"
   version="1.1"
   id="svg16"
   sodipodi:docname="lupine.svg"
   inkscape:version="1.2.2 (732a01da63, 2022-12-09)"
   xmlns:inkscape="http://www.inkscape.org/namespaces/inkscape"
   xmlns:sodipodi="http://sodipodi.sourceforge.net/DTD/sodipodi-0.dtd"
   xmlns="http://www.w3.org/2000/svg"
   xmlns:svg="http://www.w3.org/2000/svg"
   xmlns:rdf="http://www.w3.org/1999/02/22-rdf-syntax-ns#"
   xmlns:cc="http://creativecommons.org/ns#"
   xmlns:dc="http://purl.org/dc/elements/1.1/">
  <defs
     id="defs20" />
  <sodipodi:namedview
     id="namedview18"
     pagecolor="#505050"
     bordercolor="#ffffff"
     borderopacity="1"
     inkscape:showpageshadow="0"
     inkscape:pageopacity="0"
     inkscape:pagecheckerboard="1"
     inkscape:deskcolor="#505050"
     showgrid="false"
     inkscape:zoom="1.005725"
     inkscape:cx="366.40233"
     inkscape:cy="424.07217"
     inkscape:window-width="1920"
     inkscape:window-height="1051"
     inkscape:window-x="-9"
     inkscape:window-y="-9"
     inkscape:window-maximized="1"
     inkscape:current-layer="Lupine" />
  <title
     id="title12">Lupine</title>
  <g
     id="Lupine"
     stroke="none"
     stroke-width="1"
     fill="none"
     fill-rule="evenodd"
     stroke-linecap="round">
    <g
       id="g14042"
       inkscape:label="3d">
      <path
         d="M 3.8000006,20.799999 18.335534,6.2644657 M 3.8000006,20.799999 5.0908891,19.509111 c 1.0617201,-1.06172 1.2703025,-2.707405 0.5070349,-4.000433 v 0 0 m -1.7979234,5.291321 4.1656905,-4.16569 c 0.9705628,-0.970563 0.9705621,-2.544156 -5e-7,-3.514719 v 0 0 m -4.16569,7.680409 7.7012244,-7.701224 c 0.580038,-0.580038 0.580038,-1.520467 -10e-7,-2.100505 v 0 0 M 3.8000006,20.799999 16.097419,8.502581 c 0.384776,-0.3847763 0.384776,-1.0086223 0,-1.3933987 v 0 0 M 3.8000006,20.799999 14.683205,9.9167946 c 0.384777,-0.3847763 0.384776,-1.0086224 0,-1.3933988 v 0 0 M 3.7999999,20.8 5.1058084,19.494192 c 1.0599269,-1.059927 2.6923847,-1.292714 4.0063284,-0.5713 v 0 0 M 3.7999999,20.8 7.9448753,16.655125 c 0.9820589,-0.982059 2.5742907,-0.982059 3.5563487,-1e-6 v 0 0 M 3.7999999,20.8 11.480409,13.119591 c 0.591535,-0.591535 1.550602,-0.591535 2.142136,-10e-7 v 0 0 M 3.7999999,20.8 16.076603,8.5233967 c 0.396273,-0.3962723 1.038757,-0.3962723 1.435029,-4e-7 v 0 0 M 3.7999999,20.8 14.66239,9.9376103 c 0.396272,-0.3962723 1.038756,-0.3962723 1.435028,-5e-7 v 0 0 m -9.2042452,2.0882762 0.5326948,0.887825 c 0.4262219,0.71037 0.1958755,1.631761 -0.514496,2.057983 -0.2331246,0.139871 -0.4998771,0.21376 -0.7717428,0.21376 H 5.0742385 c -0.8284268,0 -1.4999997,-0.671573 -1.5,-1.5 -2e-7,-0.271865 0.073887,-0.53862 0.2137608,-0.771743 l 0.5326948,-0.887825 c 0.426222,-0.71037 1.3476125,-0.940718 2.0579829,-0.514496 0.2111209,0.126678 0.3878176,0.303375 0.5144958,0.514496 z m 5.7017562,5.701756 -0.887825,-0.532694 C 10.996733,16.768725 10.075344,16.999072 9.6491215,17.709444 9.5092501,17.942568 9.435361,18.209321 9.435361,18.481186 l -7e-7,1.06539 c 7e-7,0.828427 0.6715737,1.5 1.5000007,1.500001 0.271865,0 0.53862,-0.07389 0.771743,-0.213762 l 0.887825,-0.532694 c 0.71037,-0.426222 0.940718,-1.347613 0.514496,-2.057983 -0.126678,-0.211121 -0.303375,-0.387817 -0.514496,-0.514496 z M 9.5448236,9.6064683 10.077518,10.494293 c 0.426223,0.710371 0.195875,1.631761 -0.5144953,2.057983 -0.2331253,0.139872 -0.4998778,0.213761 -0.7717441,0.213761 H 7.7258887 c -0.1483993,0 -0.2917654,-0.02155 -0.427139,-0.06169 L 6.8931728,12.025886 C 6.7664946,11.814765 6.5897979,11.638068 6.378677,11.51139 6.332108,11.48345 6.284629,11.45833 6.2364423,11.43598 c -0.00729,-0.05526 -0.010554,-0.112221 -0.010553,-0.16994 -1e-7,-0.271866 0.073886,-0.53862 0.2137601,-0.771743 L 6.9723442,9.6064688 C 7.3985669,8.896098 8.3199575,8.6657502 9.0303278,9.0919725 9.2414487,9.2186507 9.4181454,9.3953474 9.5448236,9.6064683 Z m 5.4695234,5.4695237 c 0.21112,0.126677 0.387817,0.303374 0.514495,0.514495 0.426223,0.710371 0.195875,1.631761 -0.514496,2.057984 v 0 l -0.887824,0.532695 c -0.233126,0.139872 -0.499878,0.21376 -0.771745,0.21376 -0.05777,0 -0.114777,-0.0033 -0.170839,-0.0096 0.319443,0.685886 0.07479,1.516537 -0.589009,1.914816 v 0 l -0.887825,0.532694 c -0.233125,0.139873 -0.499878,0.213762 -0.771743,0.213762 -0.828427,-1e-6 -1.5,-0.671574 -1.5000007,-1.500001 v 0 l 7e-7,-1.06539 c 0,-0.271865 0.073887,-0.53862 0.2137605,-0.771742 0.4262215,-0.710372 1.3476115,-0.940719 2.0579825,-0.514496 v 0 l 0.209085,0.126155 c -0.03996,-0.135092 -0.06141,-0.278132 -0.06141,-0.42618 v 0 l 10e-7,-1.06539 c -10e-7,-0.271866 0.07389,-0.538621 0.21376,-0.771744 0.426223,-0.71037 1.347613,-0.940718 2.057983,-0.514496 v 0 z m -2.93399,-7.5908438 0.532695,0.887825 c 0.426222,0.7103701 0.195874,1.6317608 -0.514496,2.0579828 -0.233125,0.139872 -0.499878,0.213761 -0.771743,0.213761 h -1.06539 l -0.107122,-0.0052 c -0.02269,-0.04921 -0.04827,-0.09768 -0.07679,-0.145206 v 0 L 9.5448236,9.6064683 C 9.4181454,9.3953474 9.2414487,9.2186507 9.0303278,9.0919725 8.9470702,9.0420196 8.8609191,9.0010809 8.7730004,8.9688822 8.796539,8.7588352 8.8656161,8.5555857 8.9751839,8.3729727 L 9.5078794,7.4851472 c 0.426222,-0.7103701 1.3476126,-0.9407177 2.0579826,-0.5144954 0.211125,0.1266746 0.387821,0.3033713 0.514496,0.5144957 z m 5.05531,5.0553098 c 0.211124,0.126674 0.387821,0.303371 0.514496,0.514496 0.426222,0.71037 0.195874,1.63176 -0.514496,2.057982 v 0 l -0.887825,0.532696 c -0.182613,0.109568 -0.385863,0.178645 -0.59604,0.203435 -0.03207,-0.08917 -0.073,-0.175324 -0.122958,-0.258581 -0.126678,-0.211121 -0.303375,-0.387818 -0.514495,-0.514496 l -0.887826,-0.532695 c -0.04753,-0.02852 -0.096,-0.0541 -0.145206,-0.07679 l -0.0052,-0.107119 -1e-6,-1.06539 c 0,-0.271866 0.07389,-0.538621 0.213762,-0.771744 0.426222,-0.71037 1.347612,-0.940718 2.057982,-0.514496 v 0 z M 14.94837,6.136911 c 0.414583,0.690972 0.190526,1.5872021 -0.500446,2.001785 -0.22676,0.1360519 -0.486227,0.2079239 -0.75067,0.2079237 h -0.149418 c -0.805806,0 -1.45904,-0.6532341 -1.45904,-1.4590392 0,-0.264442 0.07187,-0.5239124 0.207924,-0.7506695 0.43934,-0.732233 1.389087,-0.9696699 2.12132,-0.5303301 0.217622,0.1305731 0.399757,0.3127079 0.53033,0.5303301 z m 4.242641,4.24264 c 0.414583,0.690973 0.190526,1.587203 -0.500447,2.001786 -0.226759,0.136052 -0.486227,0.207924 -0.750669,0.207923 h -0.149419 c -0.805805,1e-6 -1.459039,-0.653234 -1.459039,-1.459039 0,-0.264442 0.07187,-0.523912 0.207923,-0.75067 0.43934,-0.7322321 1.389087,-0.9696695 2.12132,-0.5303297 0.217623,0.1305736 0.399758,0.3127077 0.530331,0.5303297 z M 17.776797,4.7226971 c 0.414583,0.6909723 0.190526,1.5872024 -0.500446,2.0017853 -0.22676,0.1360519 -0.486227,0.2079239 -0.75067,0.2079238 h -0.149418 c -0.805805,2e-7 -1.45904,-0.6532341 -1.45904,-1.4590393 0,-0.264442 0.07187,-0.5239123 0.207924,-0.7506694 0.43934,-0.7322331 1.389087,-0.9696699 2.12132,-0.5303305 0.217623,0.1305737 0.399757,0.3127081 0.53033,0.5303301 z m 2.828427,2.8284271 c 0.414584,0.6909723 0.190526,1.5872025 -0.500446,2.0017853 -0.22676,0.136052 -0.486227,0.2079239 -0.750669,0.2079238 H 19.20469 c -0.805805,2e-7 -1.45904,-0.6532342 -1.459039,-1.4590392 -10e-7,-0.2644422 0.07187,-0.5239125 0.207923,-0.7506699 0.43934,-0.7322324 1.389087,-0.9696698 2.12132,-0.5303301 0.217623,0.1305737 0.399757,0.3127081 0.53033,0.5303301 z m 0.707107,-3.5355339 c 0.414583,0.6909724 0.190526,1.5872024 -0.500446,2.0017853 -0.22676,0.136052 -0.486227,0.2079239 -0.75067,0.2079238 h -0.149418 c -0.805805,2e-7 -1.45904,-0.6532343 -1.45904,-1.4590392 0,-0.2644422 0.07187,-0.5239125 0.207923,-0.7506699 0.439341,-0.7322325 1.389088,-0.9696698 2.121321,-0.5303301 0.217622,0.1305738 0.399757,0.3127082 0.53033,0.5303301 z"
         id="path14034"
         stroke="#000000"
         inkscape:label="3d5"
         style="display:inline;stroke:#449284;stroke-opacity:1" />
      <path
         d="M 3.7400006,20.739999 18.275534,6.2044657 M 3.7400006,20.739999 5.0308891,19.449111 c 1.0617201,-1.06172 1.2703025,-2.707405 0.5070349,-4.000433 v 0 0 m -1.7979234,5.291321 4.1656905,-4.16569 c 0.9705628,-0.970563 0.9705621,-2.544156 -5e-7,-3.514719 v 0 0 m -4.16569,7.680409 7.7012244,-7.701224 c 0.580038,-0.580038 0.580038,-1.520467 -10e-7,-2.100505 v 0 0 M 3.7400006,20.739999 16.037419,8.442581 c 0.384776,-0.3847763 0.384776,-1.0086223 0,-1.3933987 v 0 0 M 3.7400006,20.739999 14.623205,9.8567946 c 0.384777,-0.3847763 0.384776,-1.0086224 0,-1.3933988 v 0 0 M 3.7399999,20.74 5.0458084,19.434192 c 1.0599269,-1.059927 2.6923847,-1.292714 4.0063284,-0.5713 v 0 0 M 3.7399999,20.74 7.8848753,16.595125 c 0.9820589,-0.982059 2.5742907,-0.982059 3.5563487,-1e-6 v 0 0 M 3.7399999,20.74 11.420409,13.059591 c 0.591535,-0.591535 1.550602,-0.591535 2.142136,-10e-7 v 0 0 M 3.7399999,20.74 16.016603,8.4633967 c 0.396273,-0.3962723 1.038757,-0.3962723 1.435029,-4e-7 v 0 0 M 3.7399999,20.74 14.60239,9.8776103 c 0.396272,-0.3962723 1.038756,-0.3962723 1.435028,-5e-7 v 0 0 m -9.2042452,2.0882762 0.5326948,0.887825 c 0.4262219,0.71037 0.1958755,1.631761 -0.514496,2.057983 -0.2331246,0.139871 -0.4998771,0.21376 -0.7717428,0.21376 H 5.0142385 c -0.8284268,0 -1.4999997,-0.671573 -1.5,-1.5 -2e-7,-0.271865 0.073887,-0.53862 0.2137608,-0.771743 l 0.5326948,-0.887825 c 0.426222,-0.71037 1.3476125,-0.940718 2.0579829,-0.514496 0.2111209,0.126678 0.3878176,0.303375 0.5144958,0.514496 z m 5.7017562,5.701756 -0.887825,-0.532694 C 10.936733,16.708725 10.015344,16.939072 9.5891215,17.649444 9.4492501,17.882568 9.375361,18.149321 9.375361,18.421186 l -7e-7,1.06539 c 7e-7,0.828427 0.6715737,1.5 1.5000007,1.500001 0.271865,0 0.53862,-0.07389 0.771743,-0.213762 l 0.887825,-0.532694 c 0.71037,-0.426222 0.940718,-1.347613 0.514496,-2.057983 -0.126678,-0.211121 -0.303375,-0.387817 -0.514496,-0.514496 z M 9.4848236,9.5464683 10.017518,10.434293 c 0.426223,0.710371 0.195875,1.631761 -0.5144953,2.057983 -0.2331253,0.139872 -0.4998778,0.213761 -0.7717441,0.213761 H 7.6658887 c -0.1483993,0 -0.2917654,-0.02155 -0.427139,-0.06169 L 6.8331728,11.965886 C 6.7064946,11.754765 6.5297979,11.578068 6.318677,11.45139 6.272108,11.42345 6.224629,11.39833 6.1764423,11.37598 c -0.00729,-0.05526 -0.010554,-0.112221 -0.010553,-0.16994 -1e-7,-0.271866 0.073886,-0.53862 0.2137601,-0.771743 L 6.9123442,9.5464688 C 7.3385669,8.836098 8.2599575,8.6057502 8.9703278,9.0319725 9.1814487,9.1586507 9.3581454,9.3353474 9.4848236,9.5464683 Z m 5.4695234,5.4695237 c 0.21112,0.126677 0.387817,0.303374 0.514495,0.514495 0.426223,0.710371 0.195875,1.631761 -0.514496,2.057984 v 0 l -0.887824,0.532695 c -0.233126,0.139872 -0.499878,0.21376 -0.771745,0.21376 -0.05777,0 -0.114777,-0.0033 -0.170839,-0.0096 0.319443,0.685886 0.07479,1.516537 -0.589009,1.914816 v 0 l -0.887825,0.532694 c -0.233125,0.139873 -0.499878,0.213762 -0.771743,0.213762 -0.828427,-1e-6 -1.5,-0.671574 -1.5000007,-1.500001 v 0 l 7e-7,-1.06539 c 0,-0.271865 0.073887,-0.53862 0.2137605,-0.771742 0.4262215,-0.710372 1.3476115,-0.940719 2.0579825,-0.514496 v 0 l 0.209085,0.126155 c -0.03996,-0.135092 -0.06141,-0.278132 -0.06141,-0.42618 v 0 l 10e-7,-1.06539 c -10e-7,-0.271866 0.07389,-0.538621 0.21376,-0.771744 0.426223,-0.71037 1.347613,-0.940718 2.057983,-0.514496 v 0 z m -2.93399,-7.5908438 0.532695,0.887825 c 0.426222,0.7103701 0.195874,1.6317606 -0.514496,2.0579828 -0.233125,0.139872 -0.499878,0.213761 -0.771743,0.213761 h -1.06539 l -0.107122,-0.0052 c -0.02269,-0.04921 -0.04827,-0.09768 -0.07679,-0.145206 v 0 L 9.4848236,9.5464683 C 9.3581454,9.3353474 9.1814487,9.1586507 8.9703278,9.0319725 8.8870702,8.9820196 8.8009191,8.9410809 8.7130004,8.9088822 8.736539,8.6988352 8.8056161,8.4955857 8.9151839,8.3129727 L 9.4478794,7.4251472 c 0.426222,-0.7103701 1.3476126,-0.9407177 2.0579826,-0.5144954 0.211125,0.1266746 0.387821,0.3033713 0.514496,0.5144957 z m 5.05531,5.0553098 c 0.211124,0.126674 0.387821,0.303371 0.514496,0.514496 0.426222,0.71037 0.195874,1.63176 -0.514496,2.057982 v 0 l -0.887825,0.532696 c -0.182613,0.109568 -0.385863,0.178645 -0.59604,0.203435 -0.03207,-0.08917 -0.073,-0.175324 -0.122958,-0.258581 -0.126678,-0.211121 -0.303375,-0.387818 -0.514495,-0.514496 l -0.887826,-0.532695 c -0.04753,-0.02852 -0.096,-0.0541 -0.145206,-0.07679 l -0.0052,-0.107119 -10e-7,-1.06539 c 0,-0.271866 0.07389,-0.538621 0.213762,-0.771744 0.426222,-0.71037 1.347612,-0.940718 2.057982,-0.514496 v 0 z M 14.88837,6.076911 c 0.414583,0.690972 0.190526,1.5872021 -0.500446,2.001785 -0.22676,0.1360519 -0.486227,0.2079239 -0.75067,0.2079237 h -0.149418 c -0.805806,0 -1.45904,-0.6532341 -1.45904,-1.4590392 0,-0.264442 0.07187,-0.5239124 0.207924,-0.7506695 0.43934,-0.732233 1.389087,-0.9696699 2.12132,-0.5303301 0.217622,0.1305731 0.399757,0.3127079 0.53033,0.5303301 z m 4.242641,4.24264 c 0.414583,0.690973 0.190526,1.587203 -0.500447,2.001786 -0.226759,0.136052 -0.486227,0.207924 -0.750669,0.207923 h -0.149419 c -0.805805,10e-7 -1.459039,-0.653234 -1.459039,-1.459039 0,-0.264442 0.07187,-0.523912 0.207923,-0.75067 0.43934,-0.7322321 1.389087,-0.9696695 2.12132,-0.5303297 0.217623,0.1305736 0.399758,0.3127077 0.530331,0.5303297 z M 17.716797,4.6626971 c 0.414583,0.6909723 0.190526,1.5872024 -0.500446,2.0017853 -0.22676,0.1360519 -0.486227,0.2079239 -0.75067,0.2079238 h -0.149418 c -0.805805,2e-7 -1.45904,-0.6532341 -1.45904,-1.4590393 0,-0.264442 0.07187,-0.5239123 0.207924,-0.7506694 0.43934,-0.7322331 1.389087,-0.9696699 2.12132,-0.5303305 0.217623,0.1305737 0.399757,0.3127081 0.53033,0.5303301 z m 2.828427,2.8284271 c 0.414584,0.6909723 0.190526,1.5872025 -0.500446,2.0017853 -0.22676,0.136052 -0.486227,0.2079239 -0.750669,0.2079238 H 19.14469 c -0.805805,2e-7 -1.45904,-0.6532342 -1.459039,-1.4590392 -1e-6,-0.2644422 0.07187,-0.5239125 0.207923,-0.7506699 0.43934,-0.7322324 1.389087,-0.9696698 2.12132,-0.5303301 0.217623,0.1305737 0.399757,0.3127081 0.53033,0.5303301 z m 0.707107,-3.5355339 c 0.414583,0.6909724 0.190526,1.5872024 -0.500446,2.0017853 -0.22676,0.136052 -0.486227,0.2079239 -0.75067,0.2079238 h -0.149418 c -0.805805,2e-7 -1.45904,-0.6532343 -1.45904,-1.4590392 0,-0.2644422 0.07187,-0.5239125 0.207923,-0.7506699 0.439341,-0.7322325 1.389088,-0.9696698 2.121321,-0.5303301 0.217622,0.1305738 0.399757,0.3127082 0.53033,0.5303301 z"
         id="path14031"
         stroke="#000000"
         inkscape:label="3d4"
         style="display:inline;stroke:#469587;stroke-opacity:1" />
      <path
         d="M 3.6800006,20.679999 18.215534,6.1444657 M 3.6800006,20.679999 4.9708891,19.389111 c 1.0617201,-1.06172 1.2703025,-2.707405 0.5070349,-4.000433 v 0 0 m -1.7979234,5.291321 4.1656905,-4.16569 c 0.9705628,-0.970563 0.9705621,-2.544156 -5e-7,-3.514719 v 0 0 m -4.16569,7.680409 7.7012244,-7.701224 c 0.580038,-0.580038 0.580038,-1.520467 -1e-6,-2.100505 v 0 0 M 3.6800006,20.679999 15.977419,8.382581 c 0.384776,-0.3847763 0.384776,-1.0086223 0,-1.3933987 v 0 0 M 3.6800006,20.679999 14.563205,9.7967946 c 0.384777,-0.3847763 0.384776,-1.0086224 0,-1.3933988 v 0 0 M 3.6799999,20.68 4.9858084,19.374192 c 1.0599269,-1.059927 2.6923847,-1.292714 4.0063284,-0.5713 v 0 0 M 3.6799999,20.68 7.8248753,16.535125 c 0.9820589,-0.982059 2.5742907,-0.982059 3.5563487,-1e-6 v 0 0 M 3.6799999,20.68 11.360409,12.999591 c 0.591535,-0.591535 1.550602,-0.591535 2.142136,-1e-6 v 0 0 M 3.6799999,20.68 15.956603,8.4033967 c 0.396273,-0.3962723 1.038757,-0.3962723 1.435029,-4e-7 v 0 0 M 3.6799999,20.68 14.54239,9.8176103 c 0.396272,-0.3962723 1.038756,-0.3962723 1.435028,-5e-7 v 0 0 m -9.2042452,2.0882762 0.5326948,0.887825 c 0.4262219,0.71037 0.1958755,1.631761 -0.514496,2.057983 -0.2331246,0.139871 -0.4998771,0.21376 -0.7717428,0.21376 H 4.9542385 c -0.8284268,0 -1.4999997,-0.671573 -1.5,-1.5 -2e-7,-0.271865 0.073887,-0.53862 0.2137608,-0.771743 l 0.5326948,-0.887825 c 0.426222,-0.71037 1.3476125,-0.940718 2.0579829,-0.514496 0.2111209,0.126678 0.3878176,0.303375 0.5144958,0.514496 z m 5.7017562,5.701756 -0.887825,-0.532694 C 10.876733,16.648725 9.9553435,16.879072 9.5291215,17.589444 9.3892501,17.822568 9.315361,18.089321 9.315361,18.361186 l -7e-7,1.06539 c 7e-7,0.828427 0.6715732,1.5 1.5000007,1.500001 0.271865,0 0.53862,-0.07389 0.771743,-0.213762 l 0.887825,-0.532694 c 0.71037,-0.426222 0.940718,-1.347613 0.514496,-2.057983 -0.126678,-0.211121 -0.303375,-0.387817 -0.514496,-0.514496 z M 9.4248236,9.4864683 9.9575184,10.374293 c 0.4262226,0.710371 0.1958746,1.631761 -0.5144957,2.057983 -0.2331253,0.139872 -0.4998778,0.213761 -0.7717441,0.213761 H 7.6058887 c -0.1483993,0 -0.2917654,-0.02155 -0.427139,-0.06169 L 6.7731728,11.905886 C 6.6464946,11.694765 6.4697979,11.518068 6.258677,11.39139 6.212108,11.36345 6.164629,11.33833 6.1164423,11.31598 c -0.00729,-0.05526 -0.010554,-0.112221 -0.010553,-0.16994 -1e-7,-0.271866 0.073886,-0.53862 0.2137601,-0.771743 L 6.8523442,9.4864688 C 7.2785669,8.776098 8.1999575,8.5457502 8.9103278,8.9719725 9.1214487,9.0986507 9.2981454,9.2753474 9.4248236,9.4864683 Z m 5.4695234,5.4695237 c 0.21112,0.126677 0.387817,0.303374 0.514495,0.514495 0.426223,0.710371 0.195875,1.631761 -0.514496,2.057984 v 0 l -0.887824,0.532695 c -0.233126,0.139872 -0.499878,0.21376 -0.771745,0.21376 -0.05777,0 -0.114777,-0.0033 -0.170839,-0.0096 0.319443,0.685886 0.07479,1.516537 -0.589009,1.914816 v 0 l -0.887825,0.532694 c -0.233125,0.139873 -0.499878,0.213762 -0.771743,0.213762 -0.8284275,-10e-7 -1.5,-0.671574 -1.5000007,-1.500001 v 0 l 7e-7,-1.06539 c 0,-0.271865 0.073887,-0.53862 0.2137605,-0.771742 0.426222,-0.710372 1.3476115,-0.940719 2.0579825,-0.514496 v 0 l 0.209085,0.126155 c -0.03996,-0.135092 -0.06141,-0.278132 -0.06141,-0.42618 v 0 l 1e-6,-1.06539 c -1e-6,-0.271866 0.07389,-0.538621 0.21376,-0.771744 0.426223,-0.71037 1.347613,-0.940718 2.057983,-0.514496 v 0 z m -2.93399,-7.5908438 0.532695,0.887825 c 0.426222,0.7103701 0.195874,1.6317606 -0.514496,2.0579828 -0.233125,0.139872 -0.499878,0.213761 -0.771743,0.213761 h -1.06539 l -0.107122,-0.0052 c -0.02269,-0.04921 -0.048268,-0.09768 -0.076787,-0.145206 v 0 L 9.4248236,9.4864683 C 9.2981454,9.2753474 9.1214487,9.0986507 8.9103278,8.9719725 8.8270702,8.9220196 8.7409191,8.8810809 8.6530004,8.8488822 8.676539,8.6388352 8.7456161,8.4355857 8.8551839,8.2529727 L 9.3878794,7.3651472 c 0.426222,-0.7103701 1.3476126,-0.9407177 2.0579826,-0.5144954 0.211125,0.1266746 0.387821,0.3033713 0.514496,0.5144957 z m 5.05531,5.0553098 c 0.211124,0.126674 0.387821,0.303371 0.514496,0.514496 0.426222,0.71037 0.195874,1.63176 -0.514496,2.057982 v 0 l -0.887825,0.532696 c -0.182613,0.109568 -0.385863,0.178645 -0.59604,0.203435 -0.03207,-0.08917 -0.073,-0.175324 -0.122958,-0.258581 -0.126678,-0.211121 -0.303375,-0.387818 -0.514495,-0.514496 l -0.887826,-0.532695 c -0.04753,-0.02852 -0.096,-0.0541 -0.145206,-0.07679 l -0.0052,-0.107119 -10e-7,-1.06539 c 0,-0.271866 0.07389,-0.538621 0.213762,-0.771744 0.426222,-0.71037 1.347612,-0.940718 2.057982,-0.514496 v 0 z M 14.82837,6.016911 c 0.414583,0.690972 0.190526,1.5872021 -0.500446,2.001785 -0.22676,0.1360519 -0.486227,0.2079239 -0.75067,0.2079237 h -0.149418 c -0.805806,0 -1.45904,-0.6532341 -1.45904,-1.4590392 0,-0.264442 0.07187,-0.5239124 0.207924,-0.7506695 0.43934,-0.732233 1.389087,-0.9696699 2.12132,-0.5303301 0.217622,0.1305731 0.399757,0.3127079 0.53033,0.5303301 z m 4.242641,4.24264 c 0.414583,0.690973 0.190526,1.587203 -0.500447,2.001786 -0.226759,0.136052 -0.486227,0.207924 -0.750669,0.207923 h -0.149419 c -0.805805,10e-7 -1.459039,-0.653234 -1.459039,-1.459039 0,-0.264442 0.07187,-0.523912 0.207923,-0.75067 0.43934,-0.7322321 1.389087,-0.9696695 2.12132,-0.5303297 0.217623,0.1305736 0.399758,0.3127077 0.530331,0.5303297 z M 17.656797,4.6026971 c 0.414583,0.6909723 0.190526,1.5872024 -0.500446,2.0017853 -0.22676,0.1360519 -0.486227,0.2079239 -0.75067,0.2079238 h -0.149418 c -0.805805,2e-7 -1.45904,-0.6532341 -1.45904,-1.4590393 0,-0.264442 0.07187,-0.5239123 0.207924,-0.7506694 0.43934,-0.7322331 1.389087,-0.9696699 2.12132,-0.5303305 0.217623,0.1305737 0.399757,0.3127081 0.53033,0.5303301 z m 2.828427,2.8284271 c 0.414584,0.6909723 0.190526,1.5872025 -0.500446,2.0017853 -0.22676,0.136052 -0.486227,0.2079239 -0.750669,0.2079238 H 19.08469 c -0.805805,2e-7 -1.45904,-0.6532342 -1.459039,-1.4590392 -1e-6,-0.2644422 0.07187,-0.5239125 0.207923,-0.7506699 0.43934,-0.7322324 1.389087,-0.9696698 2.12132,-0.5303301 0.217623,0.1305737 0.399757,0.3127081 0.53033,0.5303301 z m 0.707107,-3.5355339 c 0.414583,0.6909724 0.190526,1.5872024 -0.500446,2.0017853 -0.22676,0.136052 -0.486227,0.2079239 -0.75067,0.2079238 h -0.149418 c -0.805805,2e-7 -1.45904,-0.6532343 -1.45904,-1.4590392 0,-0.2644422 0.07187,-0.5239125 0.207923,-0.7506699 0.439341,-0.7322325 1.389088,-0.9696698 2.121321,-0.5303301 0.217622,0.1305738 0.399757,0.3127082 0.53033,0.5303301 z"
         id="path14028"
         stroke="#000000"
         inkscape:label="3d3"
         style="display:inline;stroke:#48988a;stroke-opacity:1" />
      <path
         d="M 3.6200006,20.619999 18.155534,6.0844657 M 3.6200006,20.619999 4.9108891,19.329111 c 1.0617201,-1.06172 1.2703025,-2.707405 0.5070349,-4.000433 v 0 0 m -1.7979234,5.291321 4.1656905,-4.16569 c 0.9705628,-0.970563 0.9705621,-2.544156 -5e-7,-3.514719 v 0 0 m -4.16569,7.680409 7.7012244,-7.701224 c 0.580038,-0.580038 0.580038,-1.520467 -10e-7,-2.100505 v 0 0 M 3.6200006,20.619999 15.917419,8.322581 c 0.384776,-0.3847763 0.384776,-1.0086223 0,-1.3933987 v 0 0 M 3.6200006,20.619999 14.503205,9.7367946 c 0.384777,-0.3847763 0.384776,-1.0086224 0,-1.3933988 v 0 0 M 3.6199999,20.62 4.9258084,19.314192 c 1.0599269,-1.059927 2.6923847,-1.292714 4.0063284,-0.5713 v 0 0 M 3.6199999,20.62 7.7648753,16.475125 c 0.9820589,-0.982059 2.5742907,-0.982059 3.5563487,-10e-7 v 0 0 M 3.6199999,20.62 11.300409,12.939591 c 0.591535,-0.591535 1.550602,-0.591535 2.142136,-10e-7 v 0 0 M 3.6199999,20.62 15.896603,8.3433967 c 0.396273,-0.3962723 1.038757,-0.3962723 1.435029,-4e-7 v 0 0 M 3.6199999,20.62 14.48239,9.7576103 c 0.396272,-0.3962723 1.038756,-0.3962723 1.435028,-5e-7 v 0 0 m -9.2042452,2.0882762 0.5326948,0.887825 c 0.4262219,0.71037 0.1958755,1.631761 -0.514496,2.057983 -0.2331246,0.139871 -0.4998771,0.21376 -0.7717428,0.21376 H 4.8942385 c -0.8284268,0 -1.4999997,-0.671573 -1.5,-1.5 -2e-7,-0.271865 0.073887,-0.53862 0.2137608,-0.771743 l 0.5326948,-0.887825 c 0.426222,-0.71037 1.3476125,-0.940718 2.0579829,-0.514496 0.2111209,0.126678 0.3878176,0.303375 0.5144958,0.514496 z m 5.7017562,5.701756 -0.887825,-0.532694 C 10.816733,16.588725 9.8953435,16.819072 9.4691215,17.529444 9.3292501,17.762568 9.255361,18.029321 9.255361,18.301186 l -7e-7,1.06539 c 7e-7,0.828427 0.6715732,1.5 1.5000007,1.500001 0.271865,0 0.53862,-0.07389 0.771743,-0.213762 l 0.887825,-0.532694 c 0.71037,-0.426222 0.940718,-1.347613 0.514496,-2.057983 -0.126678,-0.211121 -0.303375,-0.387817 -0.514496,-0.514496 z M 9.3648236,9.4264683 9.8975184,10.314293 c 0.4262226,0.710371 0.1958746,1.631761 -0.5144957,2.057983 -0.2331253,0.139872 -0.4998778,0.213761 -0.7717441,0.213761 H 7.5458887 c -0.1483993,0 -0.2917654,-0.02155 -0.427139,-0.06169 L 6.7131728,11.845886 C 6.5864946,11.634765 6.4097979,11.458068 6.198677,11.33139 6.152108,11.30345 6.104629,11.27833 6.0564423,11.25598 c -0.00729,-0.05526 -0.010554,-0.112221 -0.010553,-0.16994 -10e-8,-0.271866 0.073886,-0.53862 0.2137601,-0.771743 L 6.7923442,9.4264688 C 7.2185669,8.716098 8.1399575,8.4857502 8.8503278,8.9119725 9.0614487,9.0386507 9.2381454,9.2153474 9.3648236,9.4264683 Z m 5.4695234,5.4695237 c 0.21112,0.126677 0.387817,0.303374 0.514495,0.514495 0.426223,0.710371 0.195875,1.631761 -0.514496,2.057984 v 0 l -0.887824,0.532695 c -0.233126,0.139872 -0.499878,0.21376 -0.771745,0.21376 -0.05777,0 -0.114777,-0.0033 -0.170839,-0.0096 0.319443,0.685886 0.07479,1.516537 -0.589009,1.914816 v 0 l -0.887825,0.532694 c -0.233125,0.139873 -0.499878,0.213762 -0.771743,0.213762 -0.8284275,-1e-6 -1.5,-0.671574 -1.5000007,-1.500001 v 0 l 7e-7,-1.06539 c 0,-0.271865 0.073887,-0.53862 0.2137605,-0.771742 0.426222,-0.710372 1.3476115,-0.940719 2.0579825,-0.514496 v 0 l 0.209085,0.126155 c -0.03996,-0.135092 -0.06141,-0.278132 -0.06141,-0.42618 v 0 l 1e-6,-1.06539 c -1e-6,-0.271866 0.07389,-0.538621 0.21376,-0.771744 0.426223,-0.71037 1.347613,-0.940718 2.057983,-0.514496 v 0 z m -2.93399,-7.5908438 0.532695,0.887825 c 0.426222,0.7103701 0.195874,1.6317606 -0.514496,2.0579828 -0.233125,0.139872 -0.499878,0.213761 -0.771743,0.213761 h -1.06539 l -0.1071216,-0.0052 c -0.02269,-0.04921 -0.048268,-0.09768 -0.076787,-0.145206 v 0 L 9.3648236,9.4264683 C 9.2381454,9.2153474 9.0614487,9.0386507 8.8503278,8.9119725 8.7670702,8.8620196 8.6809191,8.8210809 8.5930004,8.7888822 8.616539,8.5788352 8.6856161,8.3755857 8.7951839,8.1929727 L 9.3278794,7.3051472 c 0.426222,-0.7103701 1.3476126,-0.9407177 2.0579826,-0.5144954 0.211125,0.1266746 0.387821,0.3033713 0.514496,0.5144957 z m 5.05531,5.0553098 c 0.211124,0.126674 0.387821,0.303371 0.514496,0.514496 0.426222,0.71037 0.195874,1.63176 -0.514496,2.057982 v 0 l -0.887825,0.532696 c -0.182613,0.109568 -0.385863,0.178645 -0.59604,0.203435 -0.03207,-0.08917 -0.073,-0.175324 -0.122958,-0.258581 -0.126678,-0.211121 -0.303375,-0.387818 -0.514495,-0.514496 l -0.887826,-0.532695 c -0.04753,-0.02852 -0.096,-0.0541 -0.145206,-0.07679 l -0.0052,-0.107119 -1e-6,-1.06539 c 0,-0.271866 0.07389,-0.538621 0.213762,-0.771744 0.426222,-0.71037 1.347612,-0.940718 2.057982,-0.514496 v 0 z M 14.76837,5.956911 c 0.414583,0.690972 0.190526,1.5872021 -0.500446,2.001785 -0.22676,0.1360519 -0.486227,0.2079239 -0.75067,0.2079237 h -0.149418 c -0.805806,0 -1.45904,-0.6532341 -1.45904,-1.4590392 0,-0.264442 0.07187,-0.5239124 0.207924,-0.7506695 0.43934,-0.732233 1.389087,-0.9696699 2.12132,-0.5303301 0.217622,0.1305731 0.399757,0.3127079 0.53033,0.5303301 z m 4.242641,4.24264 c 0.414583,0.690973 0.190526,1.587203 -0.500447,2.001786 -0.226759,0.136052 -0.486227,0.207924 -0.750669,0.207923 h -0.149419 c -0.805805,1e-6 -1.459039,-0.653234 -1.459039,-1.459039 0,-0.264442 0.07187,-0.523912 0.207923,-0.75067 0.43934,-0.7322321 1.389087,-0.9696695 2.12132,-0.5303297 0.217623,0.1305736 0.399758,0.312708 0.530331,0.5303297 z M 17.596797,4.5426971 c 0.414583,0.6909723 0.190526,1.5872024 -0.500446,2.0017853 -0.22676,0.1360519 -0.486227,0.2079239 -0.75067,0.2079238 h -0.149418 c -0.805805,2e-7 -1.45904,-0.6532341 -1.45904,-1.4590393 0,-0.264442 0.07187,-0.5239123 0.207924,-0.7506694 0.43934,-0.7322331 1.389087,-0.9696699 2.12132,-0.5303305 0.217623,0.1305737 0.399757,0.3127081 0.53033,0.5303301 z m 2.828427,2.8284271 c 0.414584,0.6909723 0.190526,1.5872025 -0.500446,2.0017853 -0.22676,0.136052 -0.486227,0.2079239 -0.750669,0.2079238 H 19.02469 c -0.805805,2e-7 -1.45904,-0.6532342 -1.459039,-1.4590392 -10e-7,-0.2644422 0.07187,-0.5239125 0.207923,-0.7506699 0.43934,-0.7322324 1.389087,-0.9696698 2.12132,-0.5303301 0.217623,0.1305737 0.399757,0.3127081 0.53033,0.5303301 z m 0.707107,-3.5355339 c 0.414583,0.6909724 0.190526,1.5872024 -0.500446,2.0017853 -0.22676,0.136052 -0.486227,0.2079239 -0.75067,0.2079238 h -0.149418 c -0.805805,2e-7 -1.45904,-0.6532343 -1.45904,-1.4590392 0,-0.2644422 0.07187,-0.5239125 0.207923,-0.7506699 0.439341,-0.7322325 1.389088,-0.9696698 2.121321,-0.5303301 0.217622,0.1305738 0.399757,0.3127082 0.53033,0.5303301 z"
         id="path14025"
         stroke="#000000"
         inkscape:label="3d2"
         style="display:inline;stroke:#4a9c8d;stroke-opacity:1" />
      <path
         d="M 3.5600006,20.559999 18.095534,6.0244657 M 3.5600006,20.559999 4.8508891,19.269111 c 1.0617201,-1.06172 1.2703025,-2.707405 0.5070349,-4.000433 v 0 0 m -1.7979234,5.291321 4.1656905,-4.16569 c 0.9705628,-0.970563 0.9705621,-2.544156 -5e-7,-3.514719 v 0 0 m -4.16569,7.680409 7.7012244,-7.701224 c 0.580038,-0.580038 0.580038,-1.520467 -10e-7,-2.100505 v 0 0 M 3.5600006,20.559999 15.857419,8.262581 c 0.384776,-0.3847763 0.384776,-1.0086223 0,-1.3933987 v 0 0 M 3.5600006,20.559999 14.443205,9.6767946 c 0.384777,-0.3847763 0.384776,-1.0086224 0,-1.3933988 v 0 0 M 3.5599999,20.56 4.8658084,19.254192 c 1.0599269,-1.059927 2.6923847,-1.292714 4.0063284,-0.5713 v 0 0 M 3.5599999,20.56 7.7048753,16.415125 c 0.9820589,-0.982059 2.5742907,-0.982059 3.5563487,-1e-6 v 0 0 M 3.5599999,20.56 11.240409,12.879591 c 0.591535,-0.591535 1.550602,-0.591535 2.142136,-10e-7 v 0 0 M 3.5599999,20.56 15.836603,8.2833967 c 0.396273,-0.3962723 1.038757,-0.3962723 1.435029,-4e-7 v 0 0 M 3.5599999,20.56 14.42239,9.6976103 c 0.396272,-0.3962723 1.038756,-0.3962723 1.435028,-5e-7 v 0 0 m -9.2042452,2.0882762 0.5326948,0.887825 c 0.4262219,0.71037 0.1958755,1.631761 -0.514496,2.057983 -0.2331246,0.139871 -0.4998771,0.21376 -0.7717428,0.21376 H 4.8342385 c -0.8284268,0 -1.4999997,-0.671573 -1.5,-1.5 -2e-7,-0.271865 0.073887,-0.53862 0.2137608,-0.771743 l 0.5326948,-0.887825 c 0.426222,-0.71037 1.3476125,-0.940718 2.0579829,-0.514496 0.2111209,0.126678 0.3878176,0.303375 0.5144958,0.514496 z m 5.7017562,5.701756 -0.887825,-0.532694 C 10.756733,16.528725 9.8353435,16.759072 9.4091215,17.469444 9.2692501,17.702568 9.195361,17.969321 9.195361,18.241186 l -7e-7,1.06539 c 7e-7,0.828427 0.6715732,1.5 1.5000007,1.500001 0.271865,0 0.53862,-0.07389 0.771743,-0.213762 l 0.887825,-0.532694 c 0.71037,-0.426222 0.940718,-1.347613 0.514496,-2.057983 -0.126678,-0.211121 -0.303375,-0.387817 -0.514496,-0.514496 z M 9.3048236,9.3664683 9.8375184,10.254293 c 0.4262226,0.710371 0.1958746,1.631761 -0.5144957,2.057983 -0.2331253,0.139872 -0.4998778,0.213761 -0.7717441,0.213761 H 7.4858887 c -0.1483993,0 -0.2917654,-0.02155 -0.427139,-0.06169 L 6.6531728,11.785886 C 6.5264946,11.574765 6.3497979,11.398068 6.138677,11.27139 6.092108,11.24345 6.044629,11.21833 5.9964423,11.19598 c -0.00729,-0.05526 -0.010554,-0.112221 -0.010553,-0.16994 -1e-7,-0.271866 0.073886,-0.53862 0.2137601,-0.771743 L 6.7323442,9.3664688 C 7.1585669,8.656098 8.0799575,8.4257502 8.7903278,8.8519725 9.0014487,8.9786507 9.1781454,9.1553474 9.3048236,9.3664683 Z m 5.4695234,5.4695237 c 0.21112,0.126677 0.387817,0.303374 0.514495,0.514495 0.426223,0.710371 0.195875,1.631761 -0.514496,2.057984 v 0 l -0.887824,0.532695 c -0.233126,0.139872 -0.499878,0.21376 -0.771745,0.21376 -0.05777,0 -0.114777,-0.0033 -0.170839,-0.0096 0.319443,0.685886 0.07479,1.516537 -0.589009,1.914816 v 0 l -0.887825,0.532694 c -0.233125,0.139873 -0.499878,0.213762 -0.771743,0.213762 -0.8284275,-1e-6 -1.5,-0.671574 -1.5000007,-1.500001 v 0 l 7e-7,-1.06539 c 0,-0.271865 0.073887,-0.53862 0.2137605,-0.771742 0.426222,-0.710372 1.3476115,-0.940719 2.0579825,-0.514496 v 0 l 0.209085,0.126155 c -0.03996,-0.135092 -0.06141,-0.278132 -0.06141,-0.42618 v 0 l 10e-7,-1.06539 c -10e-7,-0.271866 0.07389,-0.538621 0.21376,-0.771744 0.426223,-0.71037 1.347613,-0.940718 2.057983,-0.514496 v 0 z m -2.93399,-7.5908438 0.532695,0.887825 c 0.426222,0.7103701 0.195874,1.6317606 -0.514496,2.0579828 -0.233125,0.139872 -0.499878,0.213761 -0.771743,0.213761 h -1.06539 l -0.1071216,-0.0052 c -0.02269,-0.04921 -0.048268,-0.09768 -0.076787,-0.145206 v 0 L 9.3048236,9.3664683 C 9.1781454,9.1553474 9.0014487,8.9786507 8.7903278,8.8519725 8.7070702,8.8020196 8.6209191,8.7610809 8.5330004,8.7288822 8.556539,8.5188352 8.6256161,8.3155857 8.7351839,8.1329727 L 9.2678794,7.2451472 c 0.426222,-0.7103701 1.3476126,-0.9407177 2.0579826,-0.5144954 0.211125,0.1266746 0.387821,0.3033713 0.514496,0.5144957 z m 5.05531,5.0553098 c 0.211124,0.126674 0.387821,0.303371 0.514496,0.514496 0.426222,0.71037 0.195874,1.63176 -0.514496,2.057982 v 0 l -0.887825,0.532696 c -0.182613,0.109568 -0.385863,0.178645 -0.59604,0.203435 -0.03207,-0.08917 -0.073,-0.175324 -0.122958,-0.258581 -0.126678,-0.211121 -0.303375,-0.387818 -0.514495,-0.514496 l -0.887826,-0.532695 c -0.04753,-0.02852 -0.096,-0.0541 -0.145206,-0.07679 l -0.0052,-0.107119 -10e-7,-1.06539 c 0,-0.271866 0.07389,-0.538621 0.213762,-0.771744 0.426222,-0.71037 1.347612,-0.940718 2.057982,-0.514496 v 0 z M 14.70837,5.896911 c 0.414583,0.690972 0.190526,1.5872021 -0.500446,2.001785 -0.22676,0.1360519 -0.486227,0.2079239 -0.75067,0.2079237 h -0.149418 c -0.805806,0 -1.45904,-0.6532341 -1.45904,-1.4590392 0,-0.264442 0.07187,-0.5239124 0.207924,-0.7506695 0.43934,-0.732233 1.389087,-0.9696699 2.12132,-0.5303301 0.217622,0.1305731 0.399757,0.3127079 0.53033,0.5303301 z m 4.242641,4.24264 c 0.414583,0.690973 0.190526,1.587203 -0.500447,2.001786 -0.226759,0.136052 -0.486227,0.207924 -0.750669,0.207923 h -0.149419 c -0.805805,1e-6 -1.459039,-0.653234 -1.459039,-1.459039 0,-0.264442 0.07187,-0.523912 0.207923,-0.75067 0.43934,-0.7322321 1.389087,-0.9696695 2.12132,-0.5303297 0.217623,0.1305736 0.399758,0.312708 0.530331,0.5303297 z M 17.536797,4.4826971 c 0.414583,0.6909723 0.190526,1.5872024 -0.500446,2.0017853 -0.22676,0.1360519 -0.486227,0.2079239 -0.75067,0.2079238 h -0.149418 c -0.805805,2e-7 -1.45904,-0.6532341 -1.45904,-1.4590393 0,-0.264442 0.07187,-0.5239123 0.207924,-0.7506694 0.43934,-0.7322331 1.389087,-0.9696699 2.12132,-0.5303305 0.217623,0.1305737 0.399757,0.3127081 0.53033,0.5303301 z m 2.828427,2.8284271 c 0.414584,0.6909723 0.190526,1.5872025 -0.500446,2.0017853 -0.22676,0.136052 -0.486227,0.2079239 -0.750669,0.2079238 H 18.96469 c -0.805805,2e-7 -1.45904,-0.6532342 -1.459039,-1.4590392 -1e-6,-0.2644422 0.07187,-0.5239125 0.207923,-0.7506699 0.43934,-0.7322324 1.389087,-0.9696698 2.12132,-0.5303301 0.217623,0.1305737 0.399757,0.3127081 0.53033,0.5303301 z m 0.707107,-3.5355339 c 0.414583,0.6909724 0.190526,1.5872024 -0.500446,2.0017853 -0.22676,0.136052 -0.486227,0.2079239 -0.75067,0.2079238 h -0.149418 c -0.805805,2e-7 -1.45904,-0.6532343 -1.45904,-1.4590392 0,-0.2644422 0.07187,-0.5239125 0.207923,-0.7506699 0.439341,-0.7322325 1.389088,-0.9696698 2.121321,-0.5303301 0.217622,0.1305738 0.399757,0.3127082 0.53033,0.5303301 z"
         id="Combined-Shape"
         stroke="#000000"
         inkscape:label="3d1"
         style="display:inline;stroke:#4b9f90;stroke-opacity:1" />
    </g>
    <path
       d="M 12.295156,24.143072 V 3.5867231 m 0,20.5563489 V 22.31748 c 0,-1.501499 -1.016185,-2.812664 -2.4702054,-3.187261 v 0 0 m 2.4702054,5.012853 v -5.891176 c 0,-1.372583 -1.112699,-2.485281 -2.4852818,-2.485281 v 0 0 m 2.4852818,8.376457 V 13.251896 c 0,-0.820298 -0.664984,-1.485281 -1.485282,-1.485281 v 0 0 m 1.485282,12.376457 V 6.7518962 c 0,-0.5441559 -0.441126,-0.9852814 -0.985282,-0.9852814 v 0 0 M 12.295156,24.143072 V 8.7518962 c 0,-0.5441559 -0.441126,-0.9852814 -0.985282,-0.9852814 v 0 0 m 0.985282,16.3764582 v -1.846692 c 0,-1.498963 0.989717,-2.81789 2.428932,-3.236872 v 0 0 m -2.428932,5.083564 v -5.861739 c 0,-1.388841 1.125878,-2.514719 2.514718,-2.514719 v 0 0 m -2.514718,8.376458 V 13.281334 c 0,-0.836556 0.678163,-1.514719 1.514718,-1.514719 v 0 0 M 12.295156,24.143073 V 6.781334 c 0,-0.5604136 0.454305,-1.0147186 1.014718,-1.0147186 v 0 0 M 12.295156,24.143073 V 8.781334 c 0,-0.5604136 0.454305,-1.0147186 1.014718,-1.0147186 v 0 0 m -5.03175,7.9850186 1.0044592,0.251115 c 0.8036918,0.200923 1.2923338,1.015324 1.0914098,1.819017 -0.06594,0.263748 -0.202315,0.504618 -0.3945531,0.696856 l -0.7533444,0.753345 c -0.5857864,0.585786 -1.5355339,0.585786 -2.1213204,0 C 6.9125369,19.079729 6.7761587,18.838859 6.7102216,18.57511 L 6.4591068,17.570651 c -0.2009231,-0.803692 0.2877179,-1.618094 1.0914103,-1.819017 0.23886,-0.05971 0.4887469,-0.05971 0.7276069,0 z m 8.063501,0 -1.004459,0.251115 c -0.803693,0.200923 -1.292334,1.015324 -1.09141,1.819017 0.06594,0.263748 0.202315,0.504618 0.394553,0.696856 l 0.753344,0.753345 c 0.585787,0.585786 1.535534,0.585786 2.121321,0 0.192238,-0.192238 0.328616,-0.433108 0.394553,-0.696857 l 0.251115,-1.004459 c 0.200923,-0.803692 -0.287718,-1.618094 -1.09141,-1.819017 -0.23886,-0.05971 -0.488747,-0.05971 -0.727607,0 z m -7.8992875,-3.585787 1.0044592,0.251115 c 0.8036923,0.200923 1.2923333,1.015325 1.0914103,1.819017 -0.06594,0.263749 -0.202315,0.504619 -0.394554,0.696857 l -0.7533439,0.753345 c -0.1049342,0.104934 -0.2215475,0.191071 -0.3456557,0.25841 L 8.278124,15.751634 c -0.23886,-0.05971 -0.4887469,-0.05971 -0.7276069,0 -0.052689,0.01317 -0.1040245,0.02898 -0.1539002,0.04725 C 7.3523809,15.764964 7.3098019,15.726994 7.2689887,15.68618 7.0767505,15.493942 6.9403723,15.253073 6.8744351,14.989324 L 6.6233203,13.984865 c -0.2009231,-0.803693 0.287718,-1.618095 1.0914103,-1.819018 0.23886,-0.05971 0.4887469,-0.05971 0.7276069,0 z m 7.7350745,0 c 0.238859,-0.05971 0.488746,-0.05971 0.727606,0 0.803693,0.200923 1.292334,1.015325 1.091411,1.819018 v 0 l -0.251115,1.004459 c -0.06594,0.263749 -0.202316,0.504618 -0.394554,0.696857 -0.04085,0.04085 -0.08347,0.07885 -0.127605,0.113998 0.710875,0.259115 1.125238,1.019469 0.937487,1.770472 v 0 l -0.251115,1.004459 c -0.06594,0.263749 -0.202315,0.504619 -0.394553,0.696857 -0.585787,0.585786 -1.535534,0.585786 -2.121321,0 v 0 l -0.753344,-0.753345 c -0.192238,-0.192238 -0.328616,-0.433108 -0.394553,-0.696856 -0.200924,-0.803693 0.287717,-1.618094 1.09141,-1.819017 v 0 l 0.237051,-0.05864 c -0.12378,-0.06727 -0.240091,-0.153247 -0.344777,-0.257933 v 0 l -0.753344,-0.753345 c -0.192239,-0.192238 -0.328617,-0.433108 -0.394554,-0.696857 -0.200923,-0.803692 0.287718,-1.618094 1.09141,-1.819017 v 0 z M 8.7352307,8.8729542 9.73969,9.124069 c 0.803692,0.2009231 1.292333,1.015325 1.09141,1.819017 -0.06594,0.263749 -0.202315,0.504619 -0.394553,0.696857 l -0.7533447,0.753344 -0.079433,0.07206 c -0.050839,-0.01875 -0.1032008,-0.03494 -0.1569728,-0.04838 v 0 l -1.004459,-0.25112 c -0.23886,-0.05971 -0.4887469,-0.05971 -0.7276069,0 -0.094194,0.02355 -0.1840601,0.05552 -0.2689959,0.09492 C 7.3138533,12.095597 7.2189791,11.903033 7.1673283,11.69643 L 6.9162135,10.69197 c -0.200923,-0.803692 0.287718,-1.6180937 1.0914104,-1.8190168 0.23886,-0.059715 0.4887468,-0.059715 0.7276068,0 z m 7.1492873,0 c 0.23886,-0.059715 0.488747,-0.059715 0.727607,0 0.803692,0.2009231 1.292333,1.0153248 1.09141,1.8190168 v 0 l -0.251114,1.00446 c -0.05165,0.206603 -0.146525,0.399167 -0.277614,0.565314 -0.08573,-0.04037 -0.175595,-0.07235 -0.269789,-0.0959 -0.23886,-0.05971 -0.488747,-0.05971 -0.727606,0 l -1.00446,0.251115 c -0.05377,0.01344 -0.106133,0.02963 -0.156973,0.04838 l -0.07943,-0.07206 -0.753345,-0.753344 c -0.192238,-0.192238 -0.328616,-0.433108 -0.394553,-0.696857 -0.200923,-0.803692 0.287718,-1.6180939 1.09141,-1.819017 v 0 z M 9.8098745,5.8916151 C 10.59162,6.0870515 11.066918,6.8792143 10.871481,7.66096 c -0.06414,0.2565465 -0.19679,0.4908388 -0.383779,0.6778276 l -0.105655,0.105655 c -0.5697903,0.5697903 -1.4936028,0.5697903 -2.0633931,0 C 8.1316652,8.2574539 7.9990111,8.0231615 7.9348745,7.7666151 c -0.2071068,-0.8284271 0.2965729,-1.6678932 1.125,-1.875 0.2462112,-0.061553 0.5037887,-0.061553 0.75,0 z m 5.9999995,0 c 0.781746,0.1954364 1.257044,0.9875992 1.061607,1.7693449 -0.06414,0.2565465 -0.19679,0.4908388 -0.383779,0.6778276 l -0.105655,0.105655 c -0.56979,0.5697903 -1.493603,0.5697903 -2.063393,0 -0.186989,-0.1869887 -0.319643,-0.4212811 -0.38378,-0.6778275 -0.207106,-0.8284271 0.296573,-1.6678932 1.125,-1.875 0.246212,-0.061553 0.503789,-0.061553 0.75,0 z m -5,-3 c 0.781746,0.1954364 1.257044,0.9875992 1.061607,1.7693449 -0.06414,0.2565465 -0.19679,0.4908388 -0.383779,0.6778276 l -0.105655,0.105655 c -0.56979,0.5697903 -1.4936028,0.5697903 -2.0633931,0 C 9.1316652,5.2574539 8.9990111,5.0231615 8.9348745,4.7666151 8.7277677,3.938188 9.2314474,3.0987219 10.059874,2.8916151 c 0.246212,-0.061553 0.503789,-0.061553 0.75,0 z m 4,0 c 0.781746,0.1954364 1.257044,0.9875992 1.061607,1.7693449 -0.06414,0.2565465 -0.19679,0.4908388 -0.383779,0.6778276 l -0.105655,0.105655 c -0.56979,0.5697903 -1.493603,0.5697903 -2.063393,0 -0.186989,-0.1869887 -0.319643,-0.4212811 -0.38378,-0.6778275 -0.207106,-0.8284271 0.296573,-1.6678932 1.125,-1.875 0.246212,-0.061553 0.503789,-0.061553 0.75,0 z m -2,-3.00000001 c 0.781746,0.19543645 1.257044,0.98759916 1.061607,1.76934491 -0.06414,0.2565465 -0.19679,0.4908388 -0.383779,0.6778276 l -0.105655,0.105655 c -0.56979,0.5697903 -1.493603,0.5697903 -2.063393,0 -0.186989,-0.1869887 -0.319643,-0.4212811 -0.38378,-0.6778275 -0.207106,-0.82842713 0.296573,-1.66789322 1.125,-1.87500001 0.246212,-0.0615528 0.503789,-0.0615528 0.75,0 z"
       id="path14023"
       stroke="#000000"
       inkscape:label="Top"
       style="display:inline;stroke:#57ad78;stroke-opacity:1;fill-opacity:1;fill:none"
       transform="rotate(45,12.295156,11.704844)" />
  </g>
  <metadata
     id="metadata16779">
    <rdf:RDF>
      <cc:Work
         rdf:about="">
        <dc:title>Lupine</dc:title>
      </cc:Work>
    </rdf:RDF>
  </metadata>
</svg>
